<svg xmlns="http://www.w3.org/2000/svg" width="90" height="40"><defs><linearGradient id="areaLinearGradient" x1="0%" y1="0%" x2="0%" y2="100%"><stop offset="0%" stop-opacity="0.2" stop-color="#FF2D55"/><stop offset="95%" stop-opacity="0" stop-color="#FF2D55"/></linearGradient></defs><g transform="translate(1, 1)"><path fill="url(#areaLinearGradient)" d="M0 33.125C0.296875 33.125 0.296875 33.125 0.4375 33.125S0.59375 33.125 0.75 27.953125 0.90625 22.796875 1.0625 22.671875 1.21875 22.5625 1.3671875 22.5625 1.5234375 22.5625 1.671875 22.5625 1.828125 22.5625 1.9765625 22.5625 2.125 22.5625 2.28125 23.625 2.4375 24.703125 2.59375 25.109375 2.75 25.515625 2.890625 25.515625 3.046875 25.515625 3.203125 25.515625 3.359375 25.515625 3.5 25.515625 3.65625 25.515625 3.8125 25.375 3.96875 25.25 4.09375 25.203125 4.25 25.15625 4.40625 25.125 4.5625 25.09375 4.71875 25.09375 4.875 25.09375 5.03125 25.09375 5.1875 25.09375 5.34375 23.625 5.5 22.171875 5.625 22.25 5.78125 22.328125 5.9375 22.46875 6.09375 22.625 6.25 21.53125 6.40625 20.4375 6.5625 20.4375 6.71875 20.4375 6.84375 24.390625 7 28.34375 7.15625 27.65625 7.3125 26.984375 7.46875 26.953125 7.625 26.921875 7.78125 26.921875 7.9375 26.921875 8.0625 26.921875 8.25 26.921875 8.375 28.171875 8.5 29.421875 8.625 28.59375 8.8125 27.78125 8.9375 27.78125 9.125 27.78125 9.25 27.1875 9.4375 26.59375 9.5625 27.375 9.75 28.171875 9.875 30.171875 10.078125 32.1875 10.2265625 32.1875 10.3828125 32.1875 10.53125 32.5625 10.6875 32.9375 10.84375 32.84375 11 32.75 11.1484375 32.75 11.3046875 32.75 11.453125 32.75 11.609375 32.75 11.7578125 33.21875 11.9140625 33.6875 12.0625 32.15625 12.21875 30.671875 12.3671875 30.53125 12.5234375 30.40625 12.671875 30.125 12.828125 29.84375 12.9765625 29.84375 13.1328125 29.84375 13.28125 20.640625 13.4375 11.4609375 13.59375 13.0390625 13.75 14.625 13.8984375 14.625 14.0546875 14.625 14.203125 13.7265625 14.359375 12.828125 14.5078125 12.828125 14.6640625 12.828125 14.8125 11.796875 14.96875 10.7734375 15.1171875 9.125 15.2734375 7.53125 15.421875 7.375 15.578125 7.21875 15.7265625 5.5 15.8828125 3.84375 16.03125 3.84375 16.1875 3.84375 16.34375 3.84375 16.5 3.84375 16.640625 3.203125 16.796875 2.5625 16.953125 2.265625 17.109375 1.9921875 17.25 1.9453125 17.40625 1.90625 17.5625 1.9375 17.71875 1.96875 17.859375 2.296875 18.015625 2.625 18.171875 2.453125 18.328125 2.296875 18.46875 2.296875 18.625 2.296875 18.78125 2.328125 18.9375 2.375 19.09375 2.375 19.25 2.375 19.390625 2.375 19.546875 2.375 19.703125 7.375 19.859375 12.3828125 20 12.3828125 20.15625 12.3828125 20.3125 12.3203125 20.46875 12.265625 20.609375 12.265625 20.765625 12.265625 20.921875 12.265625 21.078125 12.265625 21.21875 9.8125 21.375 7.4375 21.53125 7.4375 21.6875 7.4375 21.84375 7.46875 22 7.5 22.140625 7.5 22.296875 7.5 22.453125 7.5 22.609375 7.5 22.75 7.3125 22.90625 7.15625 23.0625 7.21875 23.21875 7.3125 23.359375 7.3125 23.515625 7.3125 23.671875 7.25 23.828125 7.1875 23.96875 7.1875 24.125 7.1875 24.28125 7.03125 24.4375 6.90625 24.59375 6.90625 24.75 6.90625 24.890625 7.09375 25.046875 7.28125 25.203125 7.28125 25.359375 7.28125 25.5 7.28125 25.65625 7.28125 25.8125 7.40625 25.96875 7.53125 26.109375 7.53125 26.265625 7.53125 26.421875 6.96875 26.578125 6.4375 26.71875 6.4375 26.875 6.4375 27.03125 6.4375 27.1875 6.4375 27.34375 5.09375 27.5 3.78125 27.640625 3.75 27.796875 3.75 27.953125 3.75 28.109375 3.75 28.25 3.75 28.40625 3.78125 28.5625 3.78125 28.71875 3.78125 28.859375 3.859375 29.015625 3.9375 29.171875 3.859375 29.328125 3.8125 29.46875 3.8125 29.625 3.8125 29.78125 3.6875 29.9375 3.578125 30.09375 3.578125 30.25 3.578125 30.390625 3.21875 30.546875 2.859375 30.703125 2.96875 30.859375 3.09375 31 3.09375 31.15625 3.09375 31.3125 2.90625 31.46875 2.734375 31.609375 2.734375 31.765625 2.734375 31.90625 2.734375 32.0625 2.734375 32.21875 2.515625 32.375 2.296875 32.53125 2.296875 32.6875 2.296875 32.84375 2.5 33 2.703125 33.125 2.703125 33.28125 2.703125 33.4375 3.234375 33.59375 3.78125 33.75 3.703125 33.90625 3.640625 34.0625 3.640625 34.21875 3.640625 34.34375 3.765625 34.5 3.90625 34.65625 3.90625 34.8125 3.90625 34.96875 4.5625 35.125 5.25 35.28125 5.03125 35.4375 4.8125 35.59375 4.8125 35.75 4.8125 35.875 4.5625 36.03125 4.3125 36.1875 4.3125 36.34375 4.3125 36.5 2.578125 36.65625 0.84375 36.8125 0.9375 36.96875 1.0703125 37.09375 1.0703125 37.25 1.0703125 37.40625 1.3203125 37.5625 1.578125 37.71875 1.796875 37.875 2.015625 38.03125 3.5 38.1875 5 38.34375 5 38.5 5.03125 38.625 5.03125 38.78125 5.03125 38.9375 4.96875 39.09375 4.9375 39.25 4.9375 39.40625 4.9375 39.5625 3.796875 39.71875 2.65625 39.84375 2.625 40 2.59375 40.15625 2.59375 40.3125 2.59375 40.46875 2.40625 40.625 2.234375 40.78125 2.609375 40.9375 2.984375 41.09375 2.875 41.25 2.765625 41.375 2.796875 41.53125 2.828125 41.6875 2.828125 41.84375 2.828125 42 2.765625 42.15625 2.703125 42.28125 1.9609375 42.46875 1.21875 42.59375 0.59375 42.75 0 42.90625 0.171875 43.0625 0.34375 43.21875 0.34375 43.375 0.34375 43.53125 16.21875 43.6875 32.09375 43.8125 32.875 44 33.6875 44.125 34.1875 44.28125 34.6875 44.4375 34.5625 44.59375 34.4375 44.75 34.4375 44.90625 34.4375 45.0625 34.3125 45.21875 34.1875 45.34375 34.4375 45.5 34.6875 45.65625 34.6875 45.8125 34.6875 45.96875 34.6875 46.125 34.71875 46.28125 34.8125 46.4375 34.9375 46.59375 26.421875 46.75 17.90625 46.875 17.140625 47.03125 16.375 47.1875 16.375 47.34375 16.375 47.5 16.28125 47.65625 16.203125 47.8125 15.9765625 47.96875 15.7578125 48.09375 13.0703125 48.25 10.3828125 48.40625 10.59375 48.5625 10.8046875 48.71875 10.8125 48.875 10.828125 49.03125 10.84375 49.1875 10.859375 49.34375 10.859375 49.5 10.859375 49.625 8.0625 49.78125 5.3125 49.9375 5.125 50.09375 4.96875 50.25 5.125 50.40625 5.3125 50.5625 5 50.71875 4.6875 50.84375 4.84375 51 5 51.15625 5 51.3125 5 51.46875 4.8125 51.625 4.65625 51.78125 4.65625 51.9375 4.6875 52.09375 4.59375 52.25 4.5 52.375 8.4375 52.53125 12.3828125 52.6875 12.3828125 52.84375 12.3828125 53 11.6171875 53.15625 10.859375 53.3125 10.859375 53.46875 10.859375 53.59375 10.9453125 53.75 11.0390625 53.90625 9.875 54.0625 8.75 54.21875 8.75 54.375 8.75 54.53125 9.5625 54.6875 10.4453125 54.84375 10.4453125 55 10.4453125 55.125 10.484375 55.28125 10.53125 55.4375 10.6015625 55.59375 10.6796875 55.75 10.6796875 55.90625 10.6796875 56.0625 10.9765625 56.21875 11.28125 56.34375 11.3515625 56.5 11.4296875 56.65625 12.140625 56.8125 12.859375 56.96875 12.859375 57.125 12.859375 57.25 12.9296875 57.4375 13.0078125 57.59375 12.875 57.75 12.7421875 57.875 12.8125 58.03125 12.890625 58.1875 12.90625 58.34375 12.921875 58.5 12.921875 58.65625 12.921875 58.8125 12.7421875 58.96875 12.5625 59.09375 12.8125 59.25 13.0703125 59.40625 13.0234375 59.5625 12.984375 59.71875 12.984375 59.875 12.984375 60.03125 13.0234375 60.1875 13.0703125 60.3125 12.546875 60.5 12.0234375 60.625 11.9921875 60.78125 11.96875 60.9375 12.15625 61.09375 12.3515625 61.25 12.6171875 61.40625 12.890625 61.5625 13.3203125 61.71875 13.7578125 61.84375 10.546875 62 7.34375 62.125 7.96875 62.3125 8.625 62.46875 10.1171875 62.625 11.609375 62.78125 11.609375 62.9375 11.609375 63.09375 11.7421875 63.25 11.875 63.375 12.921875 63.53125 13.96875 63.6875 14.7265625 63.84375 15.4921875 63.96875 15.3984375 64.125 15.3125 64.25 15.3125 64.4375 15.3125 64.5625 15.515625 64.75 15.7265625 64.875 15.6171875 65.0625 15.515625 65.1875 15.515625 65.375 15.515625 65.5 16.234375 65.6875 16.953125 65.8125 16.953125 66 16.953125 66.125 16.859375 66.25 16.765625 66.375 16.0625 66.5625 15.3671875 66.6875 15.484375 66.875 15.609375 67 15.6171875 67.1875 15.640625 67.3125 15.640625 67.5 15.640625 67.625 15.640625 67.8125 15.640625 67.9375 15.3515625 68.125 15.0703125 68.25 13.9765625 68.4375 12.890625 68.5625 13.0078125 68.75 13.1328125 68.875 13.1328125 69 13.1328125 69.125 13.1328125 69.3125 13.1328125 69.4375 18.046875 69.625 22.984375 69.75 22.984375 69.9375 22.984375 70.0625 24.015625 70.25 25.0625 70.375 25.0625 70.5625 25.0625 70.6875 25.0625 70.875 25.0625 71 25.796875 71.1875 26.53125 71.3125 27.125 71.5 27.71875 71.625 27.546875 71.75 27.390625 71.875 27.40625 72.0625 27.421875 72.1875 27.421875 72.375 27.421875 72.5 26.640625 72.6875 25.875 72.8125 26.078125 73 26.296875 73.125 26.875 73.3125 27.453125 73.4375 27.453125 73.625 27.453125 73.75 27.453125 73.9375 27.453125 74.0625 30.25 74.25 33.0625 74.375 33.25 74.5 33.46875 74.625 33.8125 74.8125 34.15625 74.9375 34.21875 75.125 34.28125 75.25 34.28125 75.4375 34.28125 75.5625 34.28125 75.75 34.28125 75.875 35.40625 76.0625 36.5625 76.1875 36.59375 76.375 36.65625 76.5 36.875 76.6875 37.09375 76.8125 37.09375 77 37.09375 77.125 37.15625 77.25 37.25 77.375 37.25 77.5625 37.25 77.6875 37.125 77.875 37 78 36 78.1875 35.03125 78.3125 34.78125 78.5 34.53125 78.625 34.53125 78.8125 34.53125 78.9375 34.6875 79.125 34.84375 79.25 34.84375 79.4375 34.84375 79.5625 34.5625 79.75 34.28125 79.875 34.25 80 34.25 80.125 34.25 80.3125 34.25 80.4375 34.25 80.625 34.25 80.75 34.53125 80.9375 34.8125 81.0625 35.40625 81.25 36.03125 81.375 36 81.5625 36 81.6875 36 81.875 36 82 36 82.1875 36 82.3125 34.96875 82.5 33.9375 82.625 34 82.75 34.09375 82.875 34.21875 83.0625 34.34375 83.1875 34.40625 83.375 34.5 83.5 36 83.6875 37.5 83.8125 37.5 84 37.5 84.125 37.53125 84.3125 37.5625 84.4375 37.46875 84.625 37.40625 84.75 37.3125 84.9375 37.25 85.0625 37.375 85.25 37.53125 85.375 37.53125 85.5 37.53125 85.625 37.25 85.8125 36.96875 85.9375 36.96875 86.125 36.96875 86.25 36.96875 86.4375 36.96875 86.5625 37.34375 86.75 37.75 86.875 37.78125 87.0625 37.84375 87.1875 37.84375 87.375 37.84375 87.5 37.90625 87.6875 38 87.8125 38 88 38 88 38L88 38 0 38Z"/><path fill="none" stroke="#FF2D55" stroke-linecap="round" stroke-width="1" d="M0 33.125C0.296875 33.125 0.296875 33.125 0.4375 33.125S0.59375 33.125 0.75 27.953125 0.90625 22.796875 1.0625 22.671875 1.21875 22.5625 1.3671875 22.5625 1.5234375 22.5625 1.671875 22.5625 1.828125 22.5625 1.9765625 22.5625 2.125 22.5625 2.28125 23.625 2.4375 24.703125 2.59375 25.109375 2.75 25.515625 2.890625 25.515625 3.046875 25.515625 3.203125 25.515625 3.359375 25.515625 3.5 25.515625 3.65625 25.515625 3.8125 25.375 3.96875 25.25 4.09375 25.203125 4.25 25.15625 4.40625 25.125 4.5625 25.09375 4.71875 25.09375 4.875 25.09375 5.03125 25.09375 5.1875 25.09375 5.34375 23.625 5.5 22.171875 5.625 22.25 5.78125 22.328125 5.9375 22.46875 6.09375 22.625 6.25 21.53125 6.40625 20.4375 6.5625 20.4375 6.71875 20.4375 6.84375 24.390625 7 28.34375 7.15625 27.65625 7.3125 26.984375 7.46875 26.953125 7.625 26.921875 7.78125 26.921875 7.9375 26.921875 8.0625 26.921875 8.25 26.921875 8.375 28.171875 8.5 29.421875 8.625 28.59375 8.8125 27.78125 8.9375 27.78125 9.125 27.78125 9.25 27.1875 9.4375 26.59375 9.5625 27.375 9.75 28.171875 9.875 30.171875 10.078125 32.1875 10.2265625 32.1875 10.3828125 32.1875 10.53125 32.5625 10.6875 32.9375 10.84375 32.84375 11 32.75 11.1484375 32.75 11.3046875 32.75 11.453125 32.75 11.609375 32.75 11.7578125 33.21875 11.9140625 33.6875 12.0625 32.15625 12.21875 30.671875 12.3671875 30.53125 12.5234375 30.40625 12.671875 30.125 12.828125 29.84375 12.9765625 29.84375 13.1328125 29.84375 13.28125 20.640625 13.4375 11.4609375 13.59375 13.0390625 13.75 14.625 13.8984375 14.625 14.0546875 14.625 14.203125 13.7265625 14.359375 12.828125 14.5078125 12.828125 14.6640625 12.828125 14.8125 11.796875 14.96875 10.7734375 15.1171875 9.125 15.2734375 7.53125 15.421875 7.375 15.578125 7.21875 15.7265625 5.5 15.8828125 3.84375 16.03125 3.84375 16.1875 3.84375 16.34375 3.84375 16.5 3.84375 16.640625 3.203125 16.796875 2.5625 16.953125 2.265625 17.109375 1.9921875 17.25 1.9453125 17.40625 1.90625 17.5625 1.9375 17.71875 1.96875 17.859375 2.296875 18.015625 2.625 18.171875 2.453125 18.328125 2.296875 18.46875 2.296875 18.625 2.296875 18.78125 2.328125 18.9375 2.375 19.09375 2.375 19.25 2.375 19.390625 2.375 19.546875 2.375 19.703125 7.375 19.859375 12.3828125 20 12.3828125 20.15625 12.3828125 20.3125 12.3203125 20.46875 12.265625 20.609375 12.265625 20.765625 12.265625 20.921875 12.265625 21.078125 12.265625 21.21875 9.8125 21.375 7.4375 21.53125 7.4375 21.6875 7.4375 21.84375 7.46875 22 7.5 22.140625 7.5 22.296875 7.5 22.453125 7.5 22.609375 7.5 22.75 7.3125 22.90625 7.15625 23.0625 7.21875 23.21875 7.3125 23.359375 7.3125 23.515625 7.3125 23.671875 7.25 23.828125 7.1875 23.96875 7.1875 24.125 7.1875 24.28125 7.03125 24.4375 6.90625 24.59375 6.90625 24.75 6.90625 24.890625 7.09375 25.046875 7.28125 25.203125 7.28125 25.359375 7.28125 25.5 7.28125 25.65625 7.28125 25.8125 7.40625 25.96875 7.53125 26.109375 7.53125 26.265625 7.53125 26.421875 6.96875 26.578125 6.4375 26.71875 6.4375 26.875 6.4375 27.03125 6.4375 27.1875 6.4375 27.34375 5.09375 27.5 3.78125 27.640625 3.75 27.796875 3.75 27.953125 3.75 28.109375 3.75 28.25 3.75 28.40625 3.78125 28.5625 3.78125 28.71875 3.78125 28.859375 3.859375 29.015625 3.9375 29.171875 3.859375 29.328125 3.8125 29.46875 3.8125 29.625 3.8125 29.78125 3.6875 29.9375 3.578125 30.09375 3.578125 30.25 3.578125 30.390625 3.21875 30.546875 2.859375 30.703125 2.96875 30.859375 3.09375 31 3.09375 31.15625 3.09375 31.3125 2.90625 31.46875 2.734375 31.609375 2.734375 31.765625 2.734375 31.90625 2.734375 32.0625 2.734375 32.21875 2.515625 32.375 2.296875 32.53125 2.296875 32.6875 2.296875 32.84375 2.5 33 2.703125 33.125 2.703125 33.28125 2.703125 33.4375 3.234375 33.59375 3.78125 33.75 3.703125 33.90625 3.640625 34.0625 3.640625 34.21875 3.640625 34.34375 3.765625 34.5 3.90625 34.65625 3.90625 34.8125 3.90625 34.96875 4.5625 35.125 5.25 35.28125 5.03125 35.4375 4.8125 35.59375 4.8125 35.75 4.8125 35.875 4.5625 36.03125 4.3125 36.1875 4.3125 36.34375 4.3125 36.5 2.578125 36.65625 0.84375 36.8125 0.9375 36.96875 1.0703125 37.09375 1.0703125 37.25 1.0703125 37.40625 1.3203125 37.5625 1.578125 37.71875 1.796875 37.875 2.015625 38.03125 3.5 38.1875 5 38.34375 5 38.5 5.03125 38.625 5.03125 38.78125 5.03125 38.9375 4.96875 39.09375 4.9375 39.25 4.9375 39.40625 4.9375 39.5625 3.796875 39.71875 2.65625 39.84375 2.625 40 2.59375 40.15625 2.59375 40.3125 2.59375 40.46875 2.40625 40.625 2.234375 40.78125 2.609375 40.9375 2.984375 41.09375 2.875 41.25 2.765625 41.375 2.796875 41.53125 2.828125 41.6875 2.828125 41.84375 2.828125 42 2.765625 42.15625 2.703125 42.28125 1.9609375 42.46875 1.21875 42.59375 0.59375 42.75 0 42.90625 0.171875 43.0625 0.34375 43.21875 0.34375 43.375 0.34375 43.53125 16.21875 43.6875 32.09375 43.8125 32.875 44 33.6875 44.125 34.1875 44.28125 34.6875 44.4375 34.5625 44.59375 34.4375 44.75 34.4375 44.90625 34.4375 45.0625 34.3125 45.21875 34.1875 45.34375 34.4375 45.5 34.6875 45.65625 34.6875 45.8125 34.6875 45.96875 34.6875 46.125 34.71875 46.28125 34.8125 46.4375 34.9375 46.59375 26.421875 46.75 17.90625 46.875 17.140625 47.03125 16.375 47.1875 16.375 47.34375 16.375 47.5 16.28125 47.65625 16.203125 47.8125 15.9765625 47.96875 15.7578125 48.09375 13.0703125 48.25 10.3828125 48.40625 10.59375 48.5625 10.8046875 48.71875 10.8125 48.875 10.828125 49.03125 10.84375 49.1875 10.859375 49.34375 10.859375 49.5 10.859375 49.625 8.0625 49.78125 5.3125 49.9375 5.125 50.09375 4.96875 50.25 5.125 50.40625 5.3125 50.5625 5 50.71875 4.6875 50.84375 4.84375 51 5 51.15625 5 51.3125 5 51.46875 4.8125 51.625 4.65625 51.78125 4.65625 51.9375 4.6875 52.09375 4.59375 52.25 4.5 52.375 8.4375 52.53125 12.3828125 52.6875 12.3828125 52.84375 12.3828125 53 11.6171875 53.15625 10.859375 53.3125 10.859375 53.46875 10.859375 53.59375 10.9453125 53.75 11.0390625 53.90625 9.875 54.0625 8.75 54.21875 8.75 54.375 8.75 54.53125 9.5625 54.6875 10.4453125 54.84375 10.4453125 55 10.4453125 55.125 10.484375 55.28125 10.53125 55.4375 10.6015625 55.59375 10.6796875 55.75 10.6796875 55.90625 10.6796875 56.0625 10.9765625 56.21875 11.28125 56.34375 11.3515625 56.5 11.4296875 56.65625 12.140625 56.8125 12.859375 56.96875 12.859375 57.125 12.859375 57.25 12.9296875 57.4375 13.0078125 57.59375 12.875 57.75 12.7421875 57.875 12.8125 58.03125 12.890625 58.1875 12.90625 58.34375 12.921875 58.5 12.921875 58.65625 12.921875 58.8125 12.7421875 58.96875 12.5625 59.09375 12.8125 59.25 13.0703125 59.40625 13.0234375 59.5625 12.984375 59.71875 12.984375 59.875 12.984375 60.03125 13.0234375 60.1875 13.0703125 60.3125 12.546875 60.5 12.0234375 60.625 11.9921875 60.78125 11.96875 60.9375 12.15625 61.09375 12.3515625 61.25 12.6171875 61.40625 12.890625 61.5625 13.3203125 61.71875 13.7578125 61.84375 10.546875 62 7.34375 62.125 7.96875 62.3125 8.625 62.46875 10.1171875 62.625 11.609375 62.78125 11.609375 62.9375 11.609375 63.09375 11.7421875 63.25 11.875 63.375 12.921875 63.53125 13.96875 63.6875 14.7265625 63.84375 15.4921875 63.96875 15.3984375 64.125 15.3125 64.25 15.3125 64.4375 15.3125 64.5625 15.515625 64.75 15.7265625 64.875 15.6171875 65.0625 15.515625 65.1875 15.515625 65.375 15.515625 65.5 16.234375 65.6875 16.953125 65.8125 16.953125 66 16.953125 66.125 16.859375 66.25 16.765625 66.375 16.0625 66.5625 15.3671875 66.6875 15.484375 66.875 15.609375 67 15.6171875 67.1875 15.640625 67.3125 15.640625 67.5 15.640625 67.625 15.640625 67.8125 15.640625 67.9375 15.3515625 68.125 15.0703125 68.25 13.9765625 68.4375 12.890625 68.5625 13.0078125 68.75 13.1328125 68.875 13.1328125 69 13.1328125 69.125 13.1328125 69.3125 13.1328125 69.4375 18.046875 69.625 22.984375 69.75 22.984375 69.9375 22.984375 70.0625 24.015625 70.25 25.0625 70.375 25.0625 70.5625 25.0625 70.6875 25.0625 70.875 25.0625 71 25.796875 71.1875 26.53125 71.3125 27.125 71.5 27.71875 71.625 27.546875 71.75 27.390625 71.875 27.40625 72.0625 27.421875 72.1875 27.421875 72.375 27.421875 72.5 26.640625 72.6875 25.875 72.8125 26.078125 73 26.296875 73.125 26.875 73.3125 27.453125 73.4375 27.453125 73.625 27.453125 73.75 27.453125 73.9375 27.453125 74.0625 30.25 74.25 33.0625 74.375 33.25 74.5 33.46875 74.625 33.8125 74.8125 34.15625 74.9375 34.21875 75.125 34.28125 75.25 34.28125 75.4375 34.28125 75.5625 34.28125 75.75 34.28125 75.875 35.40625 76.0625 36.5625 76.1875 36.59375 76.375 36.65625 76.5 36.875 76.6875 37.09375 76.8125 37.09375 77 37.09375 77.125 37.15625 77.25 37.25 77.375 37.25 77.5625 37.25 77.6875 37.125 77.875 37 78 36 78.1875 35.03125 78.3125 34.78125 78.5 34.53125 78.625 34.53125 78.8125 34.53125 78.9375 34.6875 79.125 34.84375 79.25 34.84375 79.4375 34.84375 79.5625 34.5625 79.75 34.28125 79.875 34.25 80 34.25 80.125 34.25 80.3125 34.25 80.4375 34.25 80.625 34.25 80.75 34.53125 80.9375 34.8125 81.0625 35.40625 81.25 36.03125 81.375 36 81.5625 36 81.6875 36 81.875 36 82 36 82.1875 36 82.3125 34.96875 82.5 33.9375 82.625 34 82.75 34.09375 82.875 34.21875 83.0625 34.34375 83.1875 34.40625 83.375 34.5 83.5 36 83.6875 37.5 83.8125 37.5 84 37.5 84.125 37.53125 84.3125 37.5625 84.4375 37.46875 84.625 37.40625 84.75 37.3125 84.9375 37.25 85.0625 37.375 85.25 37.53125 85.375 37.53125 85.5 37.53125 85.625 37.25 85.8125 36.96875 85.9375 36.96875 86.125 36.96875 86.25 36.96875 86.4375 36.96875 86.5625 37.34375 86.75 37.75 86.875 37.78125 87.0625 37.84375 87.1875 37.84375 87.375 37.84375 87.5 37.90625 87.6875 38 87.8125 38 88 38 88 38"/></g></svg>
